<svg id="emoji" viewBox="0 0 72 72" xmlns="http://www.w3.org/2000/svg">
  <g>
    <g id="line-supplement">
      <path fill="#000000" stroke="none" stroke-linecap="round" stroke-linejoin="round" stroke-width="2" d="M64,36A28,28,0,0,0,36,8V64A28,28,0,0,0,64,36Z"/>
    </g>
    <g id="color">
      <path fill="#F5EDE1" d="M21.5485,30.1243a1.5009,1.5009,0,0,0,0-3,1.5009,1.5009,0,0,0,0,3Z"/>
      <path fill="#F5EDE1" stroke="#F5EDE1" stroke-linecap="round" stroke-linejoin="round" d="M8,36A28,28,0,0,0,36,64V8A28,28,0,0,0,8,36Z"/>
      <path fill="#6272A4" stroke="#6272A4" stroke-linecap="round" stroke-linejoin="round" stroke-width="2" d="M64,36A28,28,0,0,0,36,8V64A28,28,0,0,0,64,36Z"/>
    </g>
    <g id="line">
      <circle cx="36" cy="36" r="28" fill="none" stroke="#000" stroke-linecap="round" stroke-linejoin="round" stroke-width="2"/>
      <path fill="none" stroke="#000" stroke-linecap="round" stroke-linejoin="round" stroke-width="2" d="M8,36A28,28,0,0,0,36,64V8A28,28,0,0,0,8,36Z"/>
    </g>
    <animateTransform
      attributeName="transform"
      attributeType="XML"
      type="rotate"
      from="0 36 36"
      to="360 36 36"
      dur="60s"
      repeatCount="indefinite" />
  </g>
</svg>
